HIERARCHY
ROOT Hips
{
 OFFSET 0.000000 0.000000 0.000000
 CHANNELS 6 Xposition Yposition Zposition Yrotation Xrotation Zrotation
 JOINT Chest
 {
  OFFSET 0.000000 9.585900 0.002600
  CHANNELS 3 Yrotation Xrotation Zrotation
  JOINT Chest2
  {
   OFFSET 0.000000 9.601200 -0.005300
   CHANNELS 3 Yrotation Xrotation Zrotation
   JOINT Chest3
   {
    OFFSET 0.000000 9.561800 0.000000
    CHANNELS 3 Yrotation Xrotation Zrotation
    JOINT Chest4
    {
     OFFSET 0.000000 9.552100 0.000000
     CHANNELS 3 Yrotation Xrotation Zrotation
     JOINT Neck
     {
      OFFSET 0.000000 14.453000 0.000000
      CHANNELS 3 Yrotation Xrotation Zrotation
      JOINT Head
      {
       OFFSET 0.000000 8.936500 -0.011300
       CHANNELS 3 Yrotation Xrotation Zrotation
       End Site
       {
        OFFSET 0.000000 17.073600 -0.006000
       }
      }
     }
     JOINT RightCollar
     {
      OFFSET -2.921100 9.558500 0.000000
      CHANNELS 3 Yrotation Xrotation Zrotation
      JOINT RightShoulder
      {
       OFFSET -13.519700 0.000000 0.000000
       CHANNELS 3 Yrotation Xrotation Zrotation
       JOINT RightElbow
       {
        OFFSET 0.000000 -29.696600 0.000000
        CHANNELS 3 Yrotation Xrotation Zrotation
        JOINT RightWrist
        {
         OFFSET 0.000000 -24.004700 0.000000
         CHANNELS 3 Yrotation Xrotation Zrotation
         End Site
         {
          OFFSET 0.000000 -17.728500 0.000000
         }
        }
       }
      }
     }
     JOINT LeftCollar
     {
      OFFSET 2.921100 9.558500 0.000000
      CHANNELS 3 Yrotation Xrotation Zrotation
      JOINT LeftShoulder
      {
       OFFSET 13.519700 0.000000 0.000000
       CHANNELS 3 Yrotation Xrotation Zrotation
       JOINT LeftElbow
       {
        OFFSET 0.000000 -29.696600 0.000000
        CHANNELS 3 Yrotation Xrotation Zrotation
        JOINT LeftWrist
        {
         OFFSET 0.000000 -24.004700 0.000000
         CHANNELS 3 Yrotation Xrotation Zrotation
         End Site
         {
          OFFSET 0.000000 -17.728500 0.000000
         }
        }
       }
      }
     }
    }
   }
  }
 }
 JOINT RightHip
 {
  OFFSET -7.771700 -0.012900 -0.001300
  CHANNELS 3 Yrotation Xrotation Zrotation
  JOINT RightKnee
  {
   OFFSET 0.000000 -40.869800 0.001200
   CHANNELS 3 Yrotation Xrotation Zrotation
   JOINT RightAnkle
   {
    OFFSET 0.000000 -39.717900 0.002100
    CHANNELS 3 Yrotation Xrotation Zrotation
    JOINT RightToe
    {
     OFFSET 0.000000 -4.965400 11.033500
     CHANNELS 3 Yrotation Xrotation Zrotation
     End Site
     {
      OFFSET 0.000000 -1.423100 5.872300
     }
    }
   }
  }
 }
 JOINT LeftHip
 {
  OFFSET 7.771700 -0.012900 -0.001300
  CHANNELS 3 Yrotation Xrotation Zrotation
  JOINT LeftKnee
  {
   OFFSET 0.000000 -40.869800 0.001200
   CHANNELS 3 Yrotation Xrotation Zrotation
   JOINT LeftAnkle
   {
    OFFSET 0.000000 -39.717900 0.002100
    CHANNELS 3 Yrotation Xrotation Zrotation
    JOINT LeftToe
    {
     OFFSET 0.000000 -4.965400 11.033500
     CHANNELS 3 Yrotation Xrotation Zrotation
     End Site
     {
      OFFSET 0.000000 -1.423100 5.872300
     }
    }
   }
  }
 }
}
MOTION
Frames: 7
Frame Time: 0.008333
-7.635384 57.663403 32.040848 172.587645 -39.263342 -1.928887 2.501192 22.006598 0.934590 0.346728 3.112359 -0.012222 0.562740 5.048804 -0.010327 2.154923 18.821660 0.225040 0.826927 16.187767 -0.028442 1.590264 -5.762773 -0.328252 3.138187 0.714932 1.495260 16.903400 -25.992316 -20.050018 58.658520 -49.985403 -26.624678 9.620723 9.384057 -11.971043 -6.661750 -2.021854 -3.680278 -13.195432 -24.404860 6.055163 -59.748457 -39.870267 26.312357 -28.398214 -1.415887 27.292745 10.621781 -33.560729 1.070428 -0.548231 67.619136 2.829934 4.127456 7.510403 3.462121 0.003815 0.206797 -0.054195 -8.060805 -35.986465 -0.682288 25.452490 69.834894 24.428797 -23.894473 4.363899 -5.157214 -0.748467 -1.212401 -0.395682
-7.603171 57.669684 32.033877 172.464191 -39.232319 -1.949800 2.535443 21.999205 1.007845 0.344893 3.110772 -0.011146 0.559809 5.046400 -0.008623 2.145052 18.818404 0.230231 0.836973 16.189219 -0.062560 1.609991 -5.746275 -0.394496 3.217069 0.688530 1.470550 17.075602 -26.320566 -20.040259 58.001515 -49.504640 -26.026417 9.759063 9.642325 -11.743768 -6.675542 -2.063905 -3.695120 -13.338272 -24.463831 6.106936 -59.761487 -39.667847 26.276895 -28.483939 -1.318200 27.192503 10.604893 -33.603299 1.198313 -0.540542 67.592519 2.860603 4.141967 7.525423 3.415751 0.004207 0.202253 -0.054730 -8.077193 -36.002951 -0.575452 25.344704 69.873977 24.400605 -23.872377 4.347558 -5.237028 -0.681645 -1.234169 -0.382942
-7.574489 57.675420 32.026577 172.371470 -39.195446 -1.963128 2.563199 21.981958 1.062445 0.321516 3.117413 -0.008927 0.557523 5.043793 -0.006878 2.137725 18.814726 0.236069 0.847194 16.185252 -0.094531 1.635509 -5.738385 -0.460885 3.290557 0.660206 1.447990 17.263663 -26.652427 -20.041661 57.531455 -48.984978 -25.556269 9.891645 9.887115 -11.629270 -6.693063 -2.106244 -3.708289 -13.471906 -24.521708 6.149195 -59.806761 -39.474441 26.263588 -28.585211 -1.195510 27.046718 10.615047 -33.649103 1.276945 -0.560979 67.576443 2.884133 4.154878 7.534073 3.373724 0.007277 0.185614 -0.042601 -8.098570 -36.026801 -0.496501 25.296878 69.899098 24.409369 -23.846151 4.337155 -5.298743 -0.642869 -1.249345 -0.371138
-7.549524 57.680915 32.018559 172.277007 -39.157589 -1.947205 2.629730 21.948538 1.101566 0.257954 3.140688 -0.003709 0.556178 5.040774 -0.004998 2.134282 18.810161 0.242863 0.857021 16.178669 -0.123037 1.657135 -5.744647 -0.522673 3.346750 0.601350 1.518672 17.533321 -26.926323 -20.140780 57.193087 -48.421599 -25.180503 10.008771 10.110528 -11.590877 -6.711498 -2.144908 -3.718802 -13.605033 -24.580339 6.185271 -59.880402 -39.290069 26.279472 -28.706294 -1.068741 26.858298 10.592837 -33.694064 1.345307 -0.528474 67.570844 2.918735 4.171963 7.536151 3.330360 0.007941 0.182514 -0.041270 -8.130413 -36.054815 -0.455979 25.341263 69.911828 24.490260 -23.777396 4.331591 -5.344446 -0.619557 -1.200919 -0.348332
-7.531201 57.687090 32.008177 172.171134 -39.129376 -1.878621 2.551549 21.978262 1.047368 0.364076 3.098742 -0.008804 0.515351 5.051658 0.002397 2.170208 18.795394 0.235474 0.840069 16.181293 -0.120948 1.682659 -5.756874 -0.577472 3.379418 0.560922 1.584543 17.818976 -27.211579 -20.214645 56.931512 -47.822583 -24.868286 10.096558 10.311233 -11.642273 -6.762507 -2.166301 -3.704615 -13.738877 -24.639351 6.218302 -59.961822 -39.116886 26.308897 -28.830397 -0.981961 26.646340 10.650014 -33.727104 1.306963 -0.479594 67.580084 3.038859 4.188256 7.530768 3.254650 0.016202 0.180604 -0.035978 -8.169487 -36.073178 -0.479306 25.498026 69.901477 24.657039 -23.655586 4.328842 -5.369599 -0.670801 -1.197076 -0.369009
-7.514425 57.690886 32.000309 172.079975 -39.080414 -1.809964 2.551199 21.952963 1.013038 0.323329 3.109939 -0.005042 0.534192 5.039788 0.001263 2.207198 18.782950 0.228663 0.823829 16.182292 -0.117346 1.708675 -5.763824 -0.628692 3.422473 0.523659 1.631222 18.137816 -27.492043 -20.274678 56.744260 -47.179458 -24.628899 10.167770 10.503904 -11.792537 -6.808049 -2.186237 -3.692723 -13.863499 -24.696164 6.247128 -59.989254 -38.982936 26.293752 -28.922551 -0.936841 26.449578 10.703967 -33.783525 1.266473 -0.423430 67.593805 3.141668 4.200333 7.528039 3.201833 0.015288 0.174580 -0.033597 -8.151531 -36.116399 -0.501887 25.571814 69.895533 24.741867 -23.594564 4.352984 -5.376071 -0.710721 -1.212655 -0.381417
-7.485412 57.695822 31.993247 171.983042 -39.042283 -1.810508 2.540762 21.947918 1.042511 0.323493 3.106549 -0.003203 0.555857 5.028965 0.001484 2.155101 18.787766 0.259790 0.882610 16.165084 -0.190753 1.720211 -5.768394 -0.663989 3.544351 0.488707 1.573479 18.502431 -27.779018 -20.305084 56.623596 -46.474851 -24.453965 10.234979 10.661486 -11.994884 -6.760521 -2.227655 -3.747586 -13.971050 -24.747407 6.269684 -59.927913 -38.917235 26.209505 -28.991947 -0.908486 26.274861 10.711282 -33.833615 1.346021 -0.416138 67.583706 3.171390 4.207407 7.541050 3.161493 0.013778 0.165694 -0.028147 -8.177695 -36.140475 -0.447190 25.546771 69.916383 24.785167 -23.531918 4.320963 -5.453730 -0.703606 -1.224315 -0.374266
